# xmcd
# Track frame offsets:
# 150
# 13921
# 29551
# 43455
# 53809
# 67668
# 82162
# 100409
# 115077
#
# Disc length: 1721 seconds
# Revision: 0
# Processed by: cddbd v1.5.2PL0 Copyright (c) Steve Scherf et al.
# Submitted via: VisiTrax 2.10.3.257 - For more info visit www.synapsa.com
#
DISCID=7a06b709
DTITLE=Terri Fann - Coffeehouse Country Originals
DYEAR=2008
DGENRE=Country
TTITLE0=Dreamin' 'Bout Dancin'
TTITLE1=In It for the Cowboys
TTITLE2=Lyin' Next to You
TTITLE3=If I Were an Angel
TTITLE4=Bulk Trash Blues
TTITLE5=Girlfriends
TTITLE6=On Earth as It is in Austin
TTITLE7=Salty Water
TTITLE8=Beyond Me
EXTD=Submitted by Larry@LosSenderosStudio.com
EXTT0=
EXTT1=
EXTT2=
EXTT3=
EXTT4=
EXTT5=
EXTT6=
EXTT7=
EXTT8=
PLAYORDER=
